<svg viewBox="1.2782 188.9456 531.9718 124.4" width="333" height="77.871045044117" x="83.5px" y="211.0645px"
  xmlns="http://www.w3.org/2000/svg"
  xmlns:xlink="http://www.w3.org/1999/xlink" preserveAspectRatio="none">
  <defs></defs>
  <style>.companyName {fill:#4D4D4D;fill-opacity:1;}.icon1 {fill:#3F3A6C;fill-opacity:1;}.icon2 {fill:#3F3A6C;fill-opacity:1;}.icon3 {fill:#3F3A6C;fill-opacity:1;}.icon3-str {stroke:#3F3A6C;stroke-opacity:1;}.shapeStroke-str {stroke:#313131;stroke-opacity:1;}.text {fill:#4D4D4D;fill-opacity:1;}</style>
  <g opacity="1" transform="rotate(0 1.2782 200.9456)">
    <svg width="115.934" height="100.4" x="1.2782" y="200.9456" version="1.1" preserveAspectRatio="none" viewBox="0.8619976043701172 0.9980010986328125 95.37998962402344 82.5999984741211">
      <g transform="matrix(1 0 0 1 0 0)" class="icon1">
        <g>
          <g>
            <path d="M72.392,42.298l-23.84-41.3l-23.84,41.3l-23.85,41.3h47.69h47.69L72.392,42.298z M48.122,22.628l-15.5,11.86l7.98-13.75    l7.99-13.74l7.91,13.79l7.91,13.78L48.122,22.628z"></path>
          </g>
        </g>
      </g>
    </svg>
  </g>
  <g opacity="1" transform="rotate(0 151.2122 267.9456)">
    <svg width="177.5421" height="18.4" x="151.2122" y="267.9456" version="1.1" preserveAspectRatio="none" viewBox="3.76 -29.68 363.96 37.72">
      <g transform="matrix(1 0 0 1 0 0)" class="text">
        <path id="id-6izo4zJp13" d="M23.44-28L28.64-28L28.64 0L23.44 0L23.44-12L8.96-12L8.96 0L3.76 0L3.76-28L8.96-28L8.96-16.44L23.44-16.44L23.44-28Z M48.84 0.40Q45.60 0.40 42.58-0.52Q39.56-1.44 37.80-2.96L37.80-2.96L39.60-7Q41.32-5.64 43.82-4.78Q46.32-3.92 48.84-3.92L48.84-3.92Q51.96-3.92 53.50-4.92Q55.04-5.92 55.04-7.56L55.04-7.56Q55.04-8.76 54.18-9.54Q53.32-10.32 52-10.76Q50.68-11.20 48.40-11.76L48.40-11.76Q45.20-12.52 43.22-13.28Q41.24-14.04 39.82-15.66Q38.40-17.28 38.40-20.04L38.40-20.04Q38.40-22.36 39.66-24.26Q40.92-26.16 43.46-27.28Q46-28.40 49.68-28.40L49.68-28.40Q52.24-28.40 54.72-27.76Q57.20-27.12 59-25.92L59-25.92L57.36-21.88Q55.52-22.96 53.52-23.52Q51.52-24.08 49.64-24.08L49.64-24.08Q46.56-24.08 45.06-23.04Q43.56-22 43.56-20.28L43.56-20.28Q43.56-19.08 44.42-18.32Q45.28-17.56 46.60-17.12Q47.92-16.68 50.20-16.12L50.20-16.12Q53.32-15.40 55.32-14.62Q57.32-13.84 58.74-12.24Q60.16-10.64 60.16-7.92L60.16-7.92Q60.16-5.60 58.90-3.72Q57.64-1.84 55.08-0.72Q52.52 0.40 48.84 0.40L48.84 0.40Z M82.28 0.40Q78.04 0.40 74.62-1.46Q71.20-3.32 69.26-6.60Q67.32-9.88 67.32-14L67.32-14Q67.32-18.12 69.28-21.40Q71.24-24.68 74.66-26.54Q78.08-28.40 82.32-28.40L82.32-28.40Q85.76-28.40 88.60-27.20Q91.44-26 93.40-23.72L93.40-23.72L90.04-20.56Q87-23.84 82.56-23.84L82.56-23.84Q79.68-23.84 77.40-22.58Q75.12-21.32 73.84-19.08Q72.56-16.84 72.56-14L72.56-14Q72.56-11.16 73.84-8.92Q75.12-6.68 77.40-5.42Q79.68-4.16 82.56-4.16L82.56-4.16Q87-4.16 90.04-7.48L90.04-7.48L93.40-4.28Q91.44-2 88.58-0.80Q85.72 0.40 82.28 0.40L82.28 0.40Z M143.92-21.60Q147.96-21.60 150.32-19.26Q152.68-16.92 152.68-12.24L152.68-12.24L152.68 0L147.68 0L147.68-11.60Q147.68-14.40 146.44-15.82Q145.20-17.24 142.88-17.24L142.88-17.24Q140.36-17.24 138.84-15.58Q137.32-13.92 137.32-10.84L137.32-10.84L137.32 0L132.32 0L132.32-11.60Q132.32-14.40 131.08-15.82Q129.84-17.24 127.52-17.24L127.52-17.24Q124.96-17.24 123.46-15.60Q121.96-13.96 121.96-10.84L121.96-10.84L121.96 0L116.96 0L116.96-21.36L121.72-21.36L121.72-18.64Q122.92-20.08 124.72-20.84Q126.52-21.60 128.72-21.60L128.72-21.60Q131.12-21.60 132.98-20.70Q134.84-19.80 135.92-18.04L135.92-18.04Q137.24-19.72 139.32-20.66Q141.40-21.60 143.92-21.60L143.92-21.60Z M171.24-21.60Q175.96-21.60 178.46-19.34Q180.96-17.08 180.96-12.52L180.96-12.52L180.96 0L176.24 0L176.24-2.60Q175.32-1.20 173.62-0.46Q171.92 0.28 169.52 0.28L169.52 0.28Q167.12 0.28 165.32-0.54Q163.52-1.36 162.54-2.82Q161.56-4.28 161.56-6.12L161.56-6.12Q161.56-9 163.70-10.74Q165.84-12.48 170.44-12.48L170.44-12.48L175.96-12.48L175.96-12.80Q175.96-15.04 174.62-16.24Q173.28-17.44 170.64-17.44L170.64-17.44Q168.84-17.44 167.10-16.88Q165.36-16.32 164.16-15.32L164.16-15.32L162.20-18.96Q163.88-20.24 166.24-20.92Q168.60-21.60 171.24-21.60L171.24-21.60ZM170.56-3.36Q172.44-3.36 173.90-4.22Q175.36-5.08 175.96-6.68L175.96-6.68L175.96-9.16L170.80-9.16Q166.48-9.16 166.48-6.32L166.48-6.32Q166.48-4.96 167.56-4.16Q168.64-3.36 170.56-3.36L170.56-3.36Z M207.48-29.68L212.48-29.68L212.48 0L207.68 0L207.68-2.76Q206.44-1.24 204.62-0.48Q202.80 0.28 200.60 0.28L200.60 0.28Q197.52 0.28 195.06-1.08Q192.60-2.44 191.20-4.94Q189.80-7.44 189.80-10.68L189.80-10.68Q189.80-13.92 191.20-16.40Q192.60-18.88 195.06-20.24Q197.52-21.60 200.60-21.60L200.60-21.60Q202.72-21.60 204.48-20.88Q206.24-20.16 207.48-18.72L207.48-18.72L207.48-29.68ZM201.20-4Q203-4 204.44-4.82Q205.88-5.64 206.72-7.16Q207.56-8.68 207.56-10.68L207.56-10.68Q207.56-12.68 206.72-14.20Q205.88-15.72 204.44-16.54Q203-17.36 201.20-17.36L201.20-17.36Q199.40-17.36 197.96-16.54Q196.52-15.72 195.68-14.20Q194.84-12.68 194.84-10.68L194.84-10.68Q194.84-8.68 195.68-7.16Q196.52-5.64 197.96-4.82Q199.40-4 201.20-4L201.20-4Z M243.12-10.56Q243.12-10.04 243.04-9.08L243.04-9.08L226.28-9.08Q226.72-6.72 228.58-5.34Q230.44-3.96 233.20-3.96L233.20-3.96Q236.72-3.96 239-6.28L239-6.28L241.68-3.20Q240.24-1.48 238.04-0.60Q235.84 0.28 233.08 0.28L233.08 0.28Q229.56 0.28 226.88-1.12Q224.20-2.52 222.74-5.02Q221.28-7.52 221.28-10.68L221.28-10.68Q221.28-13.80 222.70-16.30Q224.12-18.80 226.64-20.20Q229.16-21.60 232.32-21.60L232.32-21.60Q235.44-21.60 237.90-20.22Q240.36-18.84 241.74-16.34Q243.12-13.84 243.12-10.56L243.12-10.56ZM232.32-17.60Q229.92-17.60 228.26-16.18Q226.60-14.76 226.24-12.40L226.24-12.40L238.36-12.40Q238.04-14.72 236.40-16.16Q234.76-17.60 232.32-17.60L232.32-17.60Z M287.04-10.56Q287.04-10.04 286.96-9.08L286.96-9.08L270.20-9.08Q270.64-6.72 272.50-5.34Q274.36-3.96 277.12-3.96L277.12-3.96Q280.64-3.96 282.92-6.28L282.92-6.28L285.60-3.20Q284.16-1.48 281.96-0.60Q279.76 0.28 277 0.28L277 0.28Q273.48 0.28 270.80-1.12Q268.12-2.52 266.66-5.02Q265.20-7.52 265.20-10.68L265.20-10.68Q265.20-13.80 266.62-16.30Q268.04-18.80 270.56-20.20Q273.08-21.60 276.24-21.60L276.24-21.60Q279.36-21.60 281.82-20.22Q284.28-18.84 285.66-16.34Q287.04-13.84 287.04-10.56L287.04-10.56ZM276.24-17.60Q273.84-17.60 272.18-16.18Q270.52-14.76 270.16-12.40L270.16-12.40L282.28-12.40Q281.96-14.72 280.32-16.16Q278.68-17.60 276.24-17.60L276.24-17.60Z M303.40-21.60Q308.12-21.60 310.62-19.34Q313.12-17.08 313.12-12.52L313.12-12.52L313.12 0L308.40 0L308.40-2.60Q307.48-1.20 305.78-0.46Q304.08 0.28 301.68 0.28L301.68 0.28Q299.28 0.28 297.48-0.54Q295.68-1.36 294.70-2.82Q293.72-4.28 293.72-6.12L293.72-6.12Q293.72-9 295.86-10.74Q298-12.48 302.60-12.48L302.60-12.48L308.12-12.48L308.12-12.80Q308.12-15.04 306.78-16.24Q305.44-17.44 302.80-17.44L302.80-17.44Q301-17.44 299.26-16.88Q297.52-16.32 296.32-15.32L296.32-15.32L294.36-18.96Q296.04-20.24 298.40-20.92Q300.76-21.60 303.40-21.60L303.40-21.60ZM302.72-3.36Q304.60-3.36 306.06-4.22Q307.52-5.08 308.12-6.68L308.12-6.68L308.12-9.16L302.96-9.16Q298.64-9.16 298.64-6.32L298.64-6.32Q298.64-4.96 299.72-4.16Q300.80-3.36 302.72-3.36L302.72-3.36Z M330.12 0.28Q327.52 0.28 325.04-0.40Q322.56-1.08 321.08-2.12L321.08-2.12L323-5.92Q324.44-4.96 326.46-4.38Q328.48-3.80 330.44-3.80L330.44-3.80Q334.92-3.80 334.92-6.16L334.92-6.16Q334.92-7.28 333.78-7.72Q332.64-8.16 330.12-8.56L330.12-8.56Q327.48-8.96 325.82-9.48Q324.16-10 322.94-11.30Q321.72-12.60 321.72-14.92L321.72-14.92Q321.72-17.96 324.26-19.78Q326.80-21.60 331.12-21.60L331.12-21.60Q333.32-21.60 335.52-21.10Q337.72-20.60 339.12-19.76L339.12-19.76L337.20-15.96Q334.48-17.56 331.08-17.56L331.08-17.56Q328.88-17.56 327.74-16.90Q326.60-16.24 326.60-15.16L326.60-15.16Q326.60-13.96 327.82-13.46Q329.04-12.96 331.60-12.52L331.60-12.52Q334.16-12.12 335.80-11.60Q337.44-11.08 338.62-9.84Q339.80-8.60 339.80-6.32L339.80-6.32Q339.80-3.32 337.20-1.52Q334.60 0.28 330.12 0.28L330.12 0.28Z M362.92-21.36L367.72-21.36L357.72 1.72Q356.32 5.20 354.32 6.62Q352.32 8.04 349.48 8.04L349.48 8.04Q347.88 8.04 346.32 7.52Q344.76 7 343.76 6.08L343.76 6.08L345.76 2.40Q346.48 3.08 347.46 3.48Q348.44 3.88 349.44 3.88L349.44 3.88Q350.76 3.88 351.62 3.20Q352.48 2.52 353.20 0.92L353.20 0.92L353.56 0.08L344.24-21.36L349.44-21.36L356.16-5.56L362.92-21.36Z"/>
      </g>
    </svg>
  </g>
  <g opacity="1" transform="rotate(0 151.2122 215.9456)">
    <svg width="382.0378" height="40" x="151.2122" y="215.9456" version="1.1" preserveAspectRatio="none" viewBox="-0.36 -29.68 286.52000000000004 30">
      <g transform="matrix(1 0 0 1 0 0)" class="companyName">
        <path id="id-D6z1nYkh12" d="M24.24 0L21.76-6L8.76-6L6.28 0L-0.36 0L12.12-28L18.52-28L31.04 0L24.24 0ZM10.84-10.92L19.72-10.92L15.28-21.64L10.84-10.92Z M46.60-21.84Q50.60-21.84 53.06-19.44Q55.52-17.04 55.52-12.32L55.52-12.32L55.52 0L49.28 0L49.28-11.36Q49.28-13.92 48.16-15.18Q47.04-16.44 44.92-16.44L44.92-16.44Q42.56-16.44 41.16-14.98Q39.76-13.52 39.76-10.64L39.76-10.64L39.76 0L33.52 0L33.52-21.52L39.48-21.52L39.48-19Q40.72-20.36 42.56-21.10Q44.40-21.84 46.60-21.84L46.60-21.84Z M68.40 0.32Q65.72 0.32 63.16-0.34Q60.60-1 59.08-2L59.08-2L61.16-6.48Q62.60-5.56 64.64-4.98Q66.68-4.40 68.64-4.40L68.64-4.40Q72.60-4.40 72.60-6.36L72.60-6.36Q72.60-7.28 71.52-7.68Q70.44-8.08 68.20-8.36L68.20-8.36Q65.56-8.76 63.84-9.28Q62.12-9.80 60.86-11.12Q59.60-12.44 59.60-14.88L59.60-14.88Q59.60-16.92 60.78-18.50Q61.96-20.08 64.22-20.96Q66.48-21.84 69.56-21.84L69.56-21.84Q71.84-21.84 74.10-21.34Q76.36-20.84 77.84-19.96L77.84-19.96L75.76-15.52Q72.92-17.12 69.56-17.12L69.56-17.12Q67.56-17.12 66.56-16.56Q65.56-16 65.56-15.12L65.56-15.12Q65.56-14.12 66.64-13.72Q67.72-13.32 70.08-12.96L70.08-12.96Q72.72-12.52 74.40-12.02Q76.08-11.52 77.32-10.20Q78.56-8.88 78.56-6.52L78.56-6.52Q78.56-4.52 77.36-2.96Q76.16-1.40 73.86-0.54Q71.56 0.32 68.40 0.32L68.40 0.32Z M111.04-21.52L116.56-21.52L108.76 0L102.76 0L97.92-13.36L92.92 0L86.92 0L79.16-21.52L85.04-21.52L90.12-6.96L95.40-21.52L100.68-21.52L105.80-6.96L111.04-21.52Z M139.96-10.68Q139.96-10.56 139.84-9L139.84-9L123.56-9Q124.00-7 125.64-5.84Q127.28-4.68 129.72-4.68L129.72-4.68Q131.40-4.68 132.70-5.18Q134-5.68 135.12-6.76L135.12-6.76L138.44-3.16Q135.40 0.32 129.56 0.32L129.56 0.32Q125.92 0.32 123.12-1.10Q120.32-2.52 118.80-5.04Q117.28-7.56 117.28-10.76L117.28-10.76Q117.28-13.92 118.78-16.46Q120.28-19 122.90-20.42Q125.52-21.84 128.76-21.84L128.76-21.84Q131.92-21.84 134.48-20.48Q137.04-19.12 138.50-16.58Q139.96-14.04 139.96-10.68L139.96-10.68ZM128.80-17.12Q126.68-17.12 125.24-15.92Q123.80-14.72 123.48-12.64L123.48-12.64L134.08-12.64Q133.76-14.68 132.32-15.90Q130.88-17.12 128.80-17.12L128.80-17.12Z M150.08-18.68Q151.20-20.24 153.10-21.04Q155-21.84 157.48-21.84L157.48-21.84L157.48-16.08Q156.44-16.16 156.08-16.16L156.08-16.16Q153.40-16.16 151.88-14.66Q150.36-13.16 150.36-10.16L150.36-10.16L150.36 0L144.12 0L144.12-21.52L150.08-21.52L150.08-18.68Z M179.92 0.32Q177.24 0.32 174.68-0.34Q172.12-1 170.60-2L170.60-2L172.68-6.48Q174.12-5.56 176.16-4.98Q178.20-4.40 180.16-4.40L180.16-4.40Q184.12-4.40 184.12-6.36L184.12-6.36Q184.12-7.28 183.04-7.68Q181.96-8.08 179.72-8.36L179.72-8.36Q177.08-8.76 175.36-9.28Q173.64-9.80 172.38-11.12Q171.12-12.44 171.12-14.88L171.12-14.88Q171.12-16.92 172.30-18.50Q173.48-20.08 175.74-20.96Q178-21.84 181.08-21.84L181.08-21.84Q183.36-21.84 185.62-21.34Q187.88-20.84 189.36-19.96L189.36-19.96L187.28-15.52Q184.44-17.12 181.08-17.12L181.08-17.12Q179.08-17.12 178.08-16.56Q177.08-16 177.08-15.12L177.08-15.12Q177.08-14.12 178.16-13.72Q179.24-13.32 181.60-12.96L181.60-12.96Q184.24-12.52 185.92-12.02Q187.60-11.52 188.84-10.20Q190.08-8.88 190.08-6.52L190.08-6.52Q190.08-4.52 188.88-2.96Q187.68-1.40 185.38-0.54Q183.08 0.32 179.92 0.32L179.92 0.32Z M207.00-21.84Q211.00-21.84 213.46-19.44Q215.92-17.04 215.92-12.32L215.92-12.32L215.92 0L209.68 0L209.68-11.36Q209.68-13.92 208.56-15.18Q207.44-16.44 205.32-16.44L205.32-16.44Q202.96-16.44 201.56-14.98Q200.16-13.52 200.16-10.64L200.16-10.64L200.16 0L193.92 0L193.92-29.68L200.16-29.68L200.16-19.28Q201.40-20.52 203.16-21.18Q204.92-21.84 207.00-21.84L207.00-21.84Z M242.88-10.68Q242.88-10.56 242.76-9L242.76-9L226.48-9Q226.92-7 228.56-5.84Q230.20-4.68 232.64-4.68L232.64-4.68Q234.32-4.68 235.62-5.18Q236.92-5.68 238.04-6.76L238.04-6.76L241.36-3.16Q238.32 0.32 232.48 0.32L232.48 0.32Q228.84 0.32 226.04-1.10Q223.24-2.52 221.72-5.04Q220.20-7.56 220.20-10.76L220.20-10.76Q220.20-13.92 221.70-16.46Q223.20-19 225.82-20.42Q228.44-21.84 231.68-21.84L231.68-21.84Q234.84-21.84 237.40-20.48Q239.96-19.12 241.42-16.58Q242.88-14.04 242.88-10.68L242.88-10.68ZM231.72-17.12Q229.60-17.12 228.16-15.92Q226.72-14.72 226.40-12.64L226.40-12.64L237.00-12.64Q236.68-14.68 235.24-15.90Q233.80-17.12 231.72-17.12L231.72-17.12Z M268.12-10.68Q268.12-10.56 268-9L268-9L251.72-9Q252.16-7 253.80-5.84Q255.44-4.68 257.88-4.68L257.88-4.68Q259.56-4.68 260.86-5.18Q262.16-5.68 263.28-6.76L263.28-6.76L266.60-3.16Q263.56 0.32 257.72 0.32L257.72 0.32Q254.08 0.32 251.28-1.10Q248.48-2.52 246.96-5.04Q245.44-7.56 245.44-10.76L245.44-10.76Q245.44-13.92 246.94-16.46Q248.44-19 251.06-20.42Q253.68-21.84 256.92-21.84L256.92-21.84Q260.08-21.84 262.64-20.48Q265.20-19.12 266.66-16.58Q268.12-14.04 268.12-10.68L268.12-10.68ZM256.96-17.12Q254.84-17.12 253.40-15.92Q251.96-14.72 251.64-12.64L251.64-12.64L262.24-12.64Q261.92-14.68 260.48-15.90Q259.04-17.12 256.96-17.12L256.96-17.12Z M284.48-5.44L286.16-1.04Q285.24-0.36 283.90-0.02Q282.56 0.32 281.08 0.32L281.08 0.32Q277.24 0.32 275.14-1.64Q273.04-3.60 273.04-7.40L273.04-7.40L273.04-16.24L269.72-16.24L269.72-21.04L273.04-21.04L273.04-26.28L279.28-26.28L279.28-21.04L284.64-21.04L284.64-16.24L279.28-16.24L279.28-7.48Q279.28-6.12 279.98-5.38Q280.68-4.64 281.96-4.64L281.96-4.64Q283.44-4.64 284.48-5.44L284.48-5.44Z"/>
      </g>
    </svg>
  </g>
  <g opacity="1" transform="rotate(0 131.2122 188.9456)">
    <svg width="4" height="124.4" x="131.2122" y="188.9456" version="1.1" preserveAspectRatio="none" viewBox="0 0 4 124.4">
      <rect x="0" y="0" width="4" height="124.4" class="companyName shapeStroke-str" style="stroke-width:0;" rx="0px" ry="0px" />
    </svg>
  </g>
</svg>